<?xml version="1.0" encoding="UTF-8"?>
<svg width="32px" height="32px" viewBox="0 0 32 32" version="1.1" xmlns="http://www.w3.org/2000/svg" xmlns:xlink="http://www.w3.org/1999/xlink">
    <!-- Generator: sketchtool 50.2 (55047) - http://www.bohemiancoding.com/sketch -->
    
    <desc>Created with sketchtool.</desc>
    <defs></defs>
    <g id="Page-1" stroke="none" stroke-width="1" >
        <g id="Icons-/-Calendar" >
            <g id="Export">
                <path d="M8.10594658,5.92828611 C8.20164938,4.8473499 9.10930228,4 10.2151417,4 C11.3209811,4 12.228634,4.8473499 12.3243368,5.92828611 L19.6756632,5.92828611 C19.771366,4.8473499 20.6790189,4 21.7848583,4 C22.8906977,4 23.7983506,4.8473499 23.8940534,5.92828611 L25.159359,5.92828611 C26.7281347,5.92828611 28,7.2001514 28,8.76892709 L28,25.159359 C28,26.7281347 26.7281347,28 25.159359,28 L6.84064098,28 C5.2718653,28 4,26.7281347 4,25.159359 L4,8.76892709 C4,7.2001514 5.2718653,5.92828611 6.84064098,5.92828611 L8.10594658,5.92828611 Z M8.09760798,7.75299585 L6.84064098,7.75299585 C6.27962466,7.75299585 5.82470974,8.20791077 5.82470974,8.76892709 L5.82470974,12.3157338 L26.1752903,12.3157338 L26.1752903,8.76892709 C26.1752903,8.20791077 25.7203753,7.75299585 25.159359,7.75299585 L23.902392,7.75299585 L23.902392,8.52789133 C23.902392,9.69751179 22.9544788,10.645425 21.7848583,10.645425 C20.6152379,10.645425 19.6673246,9.69751179 19.6673246,8.52789133 L19.6673246,7.75299585 L12.3326754,7.75299585 L12.3326754,8.52789133 C12.3326754,9.69751179 11.3847621,10.645425 10.2151417,10.645425 C9.04552121,10.645425 8.09760798,9.69751179 8.09760798,8.52789133 L8.09760798,7.75299585 Z M26.1752903,14.1404436 L5.82470974,14.1404436 L5.82470974,25.159359 C5.82470974,25.7203753 6.27962466,26.1752903 6.84064098,26.1752903 L25.159359,26.1752903 C25.7203753,26.1752903 26.1752903,25.7203753 26.1752903,25.159359 L26.1752903,14.1404436 Z M15.2768927,18.6513934 C15.0107892,18.6513934 14.7948212,18.4354254 14.7948212,18.1693219 L14.7948212,16.7231073 C14.7948212,16.4570038 15.0107892,16.2410358 15.2768927,16.2410358 L16.7231073,16.2410358 C16.9892108,16.2410358 17.2051788,16.4570038 17.2051788,16.7231073 L17.2051788,18.1693219 C17.2051788,18.4354254 16.9892108,18.6513934 16.7231073,18.6513934 L15.2768927,18.6513934 Z M10.938249,18.6513934 L9.49203438,18.6513934 C9.2259309,18.6513934 9.00996285,18.4354254 9.00996285,18.1693219 L9.00996285,16.7231073 C9.00996285,16.4570038 9.2259309,16.2410358 9.49203438,16.2410358 L10.938249,16.2410358 C11.2043524,16.2410358 11.4203205,16.4570038 11.4203205,16.7231073 L11.4203205,18.1693219 C11.4203205,18.4354254 11.2043524,18.6513934 10.938249,18.6513934 Z M22.5079656,18.6513934 L21.061751,18.6513934 C20.7956476,18.6513934 20.5796795,18.4354254 20.5796795,18.1693219 L20.5796795,16.7231073 C20.5796795,16.4570038 20.7956476,16.2410358 21.061751,16.2410358 L22.5079656,16.2410358 C22.7740691,16.2410358 22.9900371,16.4570038 22.9900371,16.7231073 L22.9900371,18.1693219 C22.9900371,18.4354254 22.7740691,18.6513934 22.5079656,18.6513934 Z M16.7231073,23.4721087 L15.2768927,23.4721087 C15.0107892,23.4721087 14.7948212,23.2561406 14.7948212,22.9900371 L14.7948212,21.5438226 C14.7948212,21.2777191 15.0107892,21.061751 15.2768927,21.061751 L16.7231073,21.061751 C16.9892108,21.061751 17.2051788,21.2777191 17.2051788,21.5438226 L17.2051788,22.9900371 C17.2051788,23.2561406 16.9892108,23.4721087 16.7231073,23.4721087 Z M10.938249,23.4721087 L9.49203438,23.4721087 C9.2259309,23.4721087 9.00996285,23.2561406 9.00996285,22.9900371 L9.00996285,21.5438226 C9.00996285,21.2777191 9.2259309,21.061751 9.49203438,21.061751 L10.938249,21.061751 C11.2043524,21.061751 11.4203205,21.2777191 11.4203205,21.5438226 L11.4203205,22.9900371 C11.4203205,23.2561406 11.2043524,23.4721087 10.938249,23.4721087 Z M21.061751,23.4721087 C20.7956476,23.4721087 20.5796795,23.2561406 20.5796795,22.9900371 L20.5796795,21.5438226 C20.5796795,21.2777191 20.7956476,21.061751 21.061751,21.061751 L22.5079656,21.061751 C22.7740691,21.061751 22.9900371,21.2777191 22.9900371,21.5438226 L22.9900371,22.9900371 C22.9900371,23.2561406 22.7740691,23.4721087 22.5079656,23.4721087 L21.061751,23.4721087 Z M10.2151417,8.82071527 C10.3770028,8.82071527 10.5079656,8.68975242 10.5079656,8.52789133 L10.5079656,6.11753369 C10.5079656,5.95567259 10.3770028,5.82470974 10.2151417,5.82470974 C10.0532806,5.82470974 9.92231773,5.95567259 9.92231773,6.11753369 L9.92231773,8.52789133 C9.92231773,8.68975242 10.0532806,8.82071527 10.2151417,8.82071527 Z M21.7848583,8.82071527 C21.9467194,8.82071527 22.0776823,8.68975242 22.0776823,8.52789133 L22.0776823,6.11753369 C22.0776823,5.95567259 21.9467194,5.82470974 21.7848583,5.82470974 C21.6229972,5.82470974 21.4920344,5.95567259 21.4920344,6.11753369 L21.4920344,8.52789133 C21.4920344,8.68975242 21.6229972,8.82071527 21.7848583,8.82071527 Z" id="Shape"></path>
            </g>
        </g>
    </g>
</svg>