<?xml version="1.0" encoding="UTF-8"?>
<svg width="32px" height="32px" viewBox="0 0 32 32" version="1.1" xmlns="http://www.w3.org/2000/svg" xmlns:xlink="http://www.w3.org/1999/xlink">
    <!-- Generator: sketchtool 50.2 (55047) - http://www.bohemiancoding.com/sketch -->
    
    <desc>Created with sketchtool.</desc>
    <defs></defs>
    <g id="Page-1" stroke="none" stroke-width="1" >
        <g id="Icons-/-Checkmark" >
            <g id="Export">
                <path d="M22.0607299,9.46470851 L12.8498448,18.7819694 L7.71917482,13.7641826 C6.98898385,13.0500571 5.82256253,13.0484035 5.09034978,13.7604559 L5.09034978,13.7604559 C4.36936479,14.4615897 4.35327223,15.6144448 5.05440603,16.3354298 C5.05788312,16.3390053 5.06137489,16.3425666 5.06488124,16.3461134 L11.4912207,22.8466702 C12.2330013,23.5970175 13.44261,23.6039623 14.1929573,22.8621817 C14.1981575,22.8570409 14.2033281,22.8518703 14.2084688,22.8466702 L26.8626587,10.046338 C27.5978336,9.3026727 27.5909507,8.10383586 26.8472854,7.36866101 C26.8338659,7.35539469 26.8202488,7.34232972 26.8064387,7.32947048 L26.7573867,7.28379591 C25.9928349,6.57188578 24.7982323,6.60610587 24.075687,7.36061479 L22.0607299,9.46470851 Z" id="Mask"></path>
            </g>
        </g>
    </g>
</svg>