<?xml version="1.0" encoding="UTF-8"?>
<svg width="32px" height="32px" viewBox="0 0 32 32" version="1.1" xmlns="http://www.w3.org/2000/svg" xmlns:xlink="http://www.w3.org/1999/xlink">
    <!-- Generator: Sketch 51.3 (57544) - http://www.bohemiancoding.com/sketch -->
    <desc>Created with Sketch.</desc>
    <defs></defs>
    <g id="Page-1" stroke="none" stroke-width="1" fill="none" fill-rule="evenodd">
        <g id="Icons-/-Clock" fill="#000000">
            <g id="Export">
                <path d="M14.3858091,15.4 C14.5627241,14.9213366 14.9471987,14.543272 15.43,14.3750393 L15.43,8.57142857 C15.43,8.25583729 15.6858373,8 16.0014286,8 C16.3170199,8 16.5728571,8.25583729 16.5728571,8.57142857 L16.5728571,14.3800887 C17.2349475,14.6174287 17.7085714,15.2505468 17.7085714,15.9942857 C17.7085714,16.9410596 16.9410596,17.7085714 15.9942857,17.7085714 C15.2393611,17.7085714 14.5984098,17.220594 14.3696496,16.5428571 L10.5079365,16.5428571 C10.2274109,16.5428571 10,16.2870199 10,15.9714286 C10,15.6558373 10.2274109,15.4 10.5079365,15.4 L14.3858091,15.4 Z M16,28 C9.372583,28 4,22.627417 4,16 C4,9.372583 9.372583,4 16,4 C22.627417,4 28,9.372583 28,16 C28,22.627417 22.627417,28 16,28 Z M16,26.8 C21.9646753,26.8 26.8,21.9646753 26.8,16 C26.8,10.0353247 21.9646753,5.2 16,5.2 C10.0353247,5.2 5.2,10.0353247 5.2,16 C5.2,21.9646753 10.0353247,26.8 16,26.8 Z" id="Shape"></path>
            </g>
        </g>
    </g>
</svg>
