<svg xmlns="http://www.w3.org/2000/svg" width="32" height="32" viewBox="0 0 32 32">
    <g fill="none" fill-rule="evenodd" transform="translate(5 8)">
        <rect width="22" height="16" fill="#007ECD" rx="2.084"/>
        <path fill="#FFF" d="M19.338 5H22v1.176l-1.707 1.836L22 9.952V11h-.86l-1.85-.002-.82-.932-.871.932h-4.766v-.001h-2.286v-.74L10.24 11H8.455l-.307-.733v.73h-3.44l-.393-.955h-.882l-.394.955H0l2.53-5.994h2.668l.343.708v-.708H8.67l.684 1.548.666-1.548h2.813V5h4.87l.79.918.845-.918zm-5.207 1.744h2.565l1.119 1.253-1.169 1.26h-2.515v-.854h2.246v-.877H14.13v-.782zm5.655-.889l-1.301 1.41-1.259-1.41h-4.114v4.298h4.052l1.309-1.422 1.26 1.423h1.282l-1.883-2.142 2.005-2.157h-1.35zM3.176 8.298l.696-1.713.7 1.713H3.175zm7.457-2.443l-1.23 2.916-1.339-2.916h-1.67v4.07l-1.74-4.07H3.136l-1.832 4.298h1.111l.397-.959h2.13l.393.959h2.081v-3.37l1.487 3.37h.899l1.483-3.366.004 3.366h1.049V5.855h-1.704z"/>
    </g>
</svg>
