<svg xmlns="http://www.w3.org/2000/svg" width="32" height="32" viewBox="0 0 32 32">
    <g fill="none" fill-rule="evenodd" transform="translate(5 8)">
        <rect width="22" height="16" fill="#353A48" rx="2.084"/>
        <path fill="#FF5E00" d="M11.116 4.719a4.192 4.192 0 0 1 2.779-1.056c2.366 0 4.284 1.978 4.284 4.418 0 2.44-1.918 4.418-4.284 4.418-1.06 0-2.031-.397-2.78-1.055a4.192 4.192 0 0 1-2.778 1.055c-2.366 0-4.284-1.978-4.284-4.418 0-2.44 1.918-4.418 4.284-4.418 1.06 0 2.03.398 2.779 1.056z"/>
        <path fill="#ED0006" d="M11.116 4.719A4.465 4.465 0 0 0 9.61 8.08c0 1.347.584 2.552 1.505 3.363a4.192 4.192 0 0 1-2.78 1.055c-2.365 0-4.283-1.978-4.283-4.418 0-2.44 1.918-4.418 4.284-4.418 1.06 0 2.03.398 2.779 1.056z"/>
        <path fill="#F9A000" d="M11.116 11.444A4.465 4.465 0 0 0 12.62 8.08a4.465 4.465 0 0 0-1.505-3.362 4.192 4.192 0 0 1 2.779-1.056c2.366 0 4.284 1.978 4.284 4.418 0 2.44-1.918 4.418-4.284 4.418-1.06 0-2.031-.397-2.78-1.055z"/>
    </g>
</svg>
