<svg xmlns="http://www.w3.org/2000/svg" width="32" height="32" viewBox="0 0 32 32">
    <g fill="none" fill-rule="evenodd" transform="translate(5 8)">
        <rect width="22" height="16" fill="#224DBA" rx="2.084"/>
        <path fill="#FFF" d="M6 10.953H4.27L2.97 6.3c-.061-.214-.192-.404-.384-.493A5.888 5.888 0 0 0 1 5.313v-.179h2.788c.385 0 .674.27.722.582l.673 3.358 1.73-3.94h1.683L6 10.954zm3.558 0H7.923L9.27 5.134h1.634l-1.346 5.82zm3.461-4.207c.048-.313.337-.492.674-.492a3.216 3.216 0 0 1 1.586.268l.289-1.253A4.371 4.371 0 0 0 14.078 5c-1.587 0-2.742.806-2.742 1.925 0 .85.818 1.298 1.395 1.567.625.268.865.447.817.716 0 .402-.48.582-.961.582a4.343 4.343 0 0 1-1.683-.359l-.288 1.254a4.983 4.983 0 0 0 1.779.313c1.779.044 2.884-.76 2.884-1.97 0-1.521-2.26-1.61-2.26-2.282zM21 10.953l-1.298-5.819h-1.394c-.289 0-.577.18-.674.448l-2.403 5.371h1.683l.336-.85h2.067l.193.85H21zm-2.452-4.252l.48 2.193h-1.345l.865-2.193z"/>
    </g>
</svg>
