<?xml version="1.0" encoding="UTF-8"?>
<svg width="32px" height="32px" viewBox="0 0 32 32" version="1.1" xmlns="http://www.w3.org/2000/svg" xmlns:xlink="http://www.w3.org/1999/xlink">
    <!-- Generator: sketchtool 50.2 (55047) - http://www.bohemiancoding.com/sketch -->
    
    <desc>Created with sketchtool.</desc>
    <defs></defs>
    <g id="Page-1" stroke="none" stroke-width="1" >
        <g id="Icons-/-Menu---Hamburger" >
            <g id="Export">
                <path d="M7,8 L25,8 C25.5522847,8 26,8.44771525 26,9 C26,9.55228475 25.5522847,10 25,10 L7,10 C6.44771525,10 6,9.55228475 6,9 C6,8.44771525 6.44771525,8 7,8 Z M7,15 L25,15 C25.5522847,15 26,15.4477153 26,16 C26,16.5522847 25.5522847,17 25,17 L7,17 C6.44771525,17 6,16.5522847 6,16 C6,15.4477153 6.44771525,15 7,15 Z M7,22 L25,22 C25.5522847,22 26,22.4477153 26,23 C26,23.5522847 25.5522847,24 25,24 L7,24 C6.44771525,24 6,23.5522847 6,23 C6,22.4477153 6.44771525,22 7,22 Z" id="Shape"></path>
            </g>
        </g>
    </g>
</svg>