<svg xmlns="http://www.w3.org/2000/svg" width="346" height="32" viewBox="0 0 346 32">
  <g fill="#020203" fill-rule="nonzero">
    <path d="M5.435 16.813v14.425H.355V1.168h5.08v13.664H20.52V1.168H25.6v30.07h-5.08V16.813zM51.962 30.425c1.727 0 3.25-.355 4.571-1.066 1.321-.711 2.438-1.727 3.353-2.997.914-1.27 1.574-2.794 2.031-4.572A23.18 23.18 0 0 0 62.63 16c0-2.083-.254-3.962-.712-5.689a14.457 14.457 0 0 0-2.031-4.47c-.915-1.219-2.032-2.235-3.353-2.895-1.32-.711-2.844-1.016-4.571-1.016-1.778 0-3.302.356-4.622 1.016a10.183 10.183 0 0 0-3.353 2.895c-.914 1.27-1.574 2.743-2.031 4.47-.458 1.727-.66 3.606-.66 5.689s.202 4.013.66 5.79c.457 1.778 1.117 3.302 2.031 4.572.915 1.27 1.981 2.286 3.353 2.997 1.32.71 2.895 1.066 4.622 1.066m0 1.524a18.26 18.26 0 0 1-4.47-.559c-1.422-.406-2.743-.914-3.962-1.625a17.94 17.94 0 0 1-3.352-2.489 14.596 14.596 0 0 1-2.59-3.25 14.133 14.133 0 0 1-1.626-3.81c-.406-1.372-.559-2.743-.559-4.216 0-1.422.203-2.844.559-4.165.406-1.32.914-2.54 1.625-3.708.711-1.168 1.575-2.184 2.59-3.15 1.017-.964 2.134-1.726 3.353-2.437 1.22-.66 2.54-1.22 3.962-1.575a18.26 18.26 0 0 1 4.47-.559c1.575 0 3.048.204 4.47.56 1.422.355 2.743.863 3.962 1.574a15.719 15.719 0 0 1 3.352 2.438c1.016.965 1.88 1.98 2.59 3.149.712 1.168 1.27 2.387 1.626 3.708.406 1.32.559 2.692.559 4.165 0 1.473-.204 2.844-.56 4.216-.405 1.371-.913 2.641-1.624 3.81-.712 1.168-1.575 2.234-2.591 3.25a17.94 17.94 0 0 1-3.352 2.49c-1.22.71-2.54 1.218-3.962 1.624a18.26 18.26 0 0 1-4.47.56M77.816 1.168h5.028v19.505c0 1.27.204 2.489.66 3.606.458 1.118 1.067 2.134 1.88 2.946.813.864 1.829 1.524 2.946 2.032 1.168.508 2.438.711 3.86.711 1.423 0 2.743-.254 3.912-.71 1.168-.509 2.133-1.17 2.946-2.033a9.41 9.41 0 0 0 1.879-2.946c.406-1.117.66-2.336.66-3.606V1.168h2.235v19.505c0 1.524-.254 2.997-.762 4.368-.508 1.372-1.27 2.54-2.336 3.607-1.067 1.015-2.438 1.828-4.114 2.438-1.677.61-3.658.914-5.994.914-2.083 0-3.911-.305-5.486-.914-1.574-.61-2.946-1.423-4.013-2.438a10.306 10.306 0 0 1-2.438-3.607c-.558-1.371-.812-2.844-.812-4.419V1.168h-.051zM122.565 30.019c.762 0 1.473-.102 2.235-.305a6.155 6.155 0 0 0 1.93-.914 5.393 5.393 0 0 0 1.372-1.473c.355-.559.508-1.27.508-2.032 0-.914-.254-1.727-.712-2.438-.457-.711-1.117-1.371-1.879-1.98-.762-.61-1.676-1.17-2.641-1.677-1.016-.508-1.981-1.067-3.048-1.575a45.315 45.315 0 0 1-3.047-1.676 13.115 13.115 0 0 1-2.642-1.93c-.762-.711-1.371-1.524-1.88-2.387-.456-.864-.71-1.88-.71-3.048 0-1.168.203-2.235.66-3.2.406-.965 1.067-1.828 1.88-2.54.812-.71 1.879-1.27 3.098-1.676 1.219-.406 2.641-.61 4.216-.61 2.844 0 5.08.61 6.755 1.779 1.626 1.168 2.845 2.946 3.556 5.18l-2.59 1.169a12.921 12.921 0 0 0-1.169-2.54 7.892 7.892 0 0 0-1.676-1.98c-.66-.56-1.422-.966-2.235-1.27-.863-.306-1.829-.458-2.895-.458-.965 0-1.778.152-2.49.406-.71.254-1.32.61-1.777 1.016a4.754 4.754 0 0 0-1.067 1.423 3.828 3.828 0 0 0-.355 1.676c0 .812.254 1.524.711 2.184a9.737 9.737 0 0 0 1.93 1.88c.813.609 1.676 1.167 2.743 1.675 1.016.56 2.083 1.067 3.098 1.677 1.067.558 2.083 1.168 3.099 1.727 1.016.61 1.93 1.27 2.743 1.98.812.712 1.422 1.524 1.93 2.388.508.863.711 1.828.711 2.844 0 1.22-.203 2.337-.66 3.353a7.18 7.18 0 0 1-2.032 2.743 10.396 10.396 0 0 1-3.403 1.879c-1.372.457-2.895.66-4.673.66-1.422 0-2.743-.152-3.86-.457-1.118-.305-2.134-.762-2.997-1.371-.864-.61-1.626-1.321-2.235-2.235-.61-.864-1.118-1.88-1.524-2.997l2.743-1.118c.304.966.762 1.88 1.27 2.642.558.762 1.168 1.422 1.879 1.98a7.093 7.093 0 0 0 2.387 1.22 9.411 9.411 0 0 0 2.743.406M163.15 1.168v1.93h-15.848v10.718h10.565v1.98h-10.565v13.461h15.847v1.981h-20.927V1.168zM188.8 1.168h2.794l19.708 21.943h.203V1.168h2.235V31.95h-1.169L191.238 7.467h-.203v23.771H188.8zM240.102 30.425c1.727 0 3.25-.355 4.571-1.066 1.32-.711 2.438-1.727 3.352-2.997.915-1.27 1.575-2.794 2.032-4.572a23.18 23.18 0 0 0 .711-5.79c0-2.083-.254-3.962-.71-5.689a14.457 14.457 0 0 0-2.033-4.47c-.914-1.219-2.031-2.235-3.352-2.895-1.32-.711-2.844-1.016-4.571-1.016-1.778 0-3.302.356-4.623 1.016a10.183 10.183 0 0 0-3.352 2.895c-.914 1.27-1.575 2.743-2.032 4.47-.457 1.727-.66 3.606-.66 5.689s.203 4.013.66 5.79c.457 1.778 1.118 3.302 2.032 4.572.914 1.27 1.98 2.286 3.352 2.997 1.321.71 2.896 1.066 4.623 1.066m0 1.524a18.26 18.26 0 0 1-4.47-.559c-1.422-.406-2.743-.914-3.962-1.625a17.94 17.94 0 0 1-3.353-2.489 14.596 14.596 0 0 1-2.59-3.25 14.133 14.133 0 0 1-1.625-3.81c-.407-1.372-.56-2.743-.56-4.216 0-1.422.204-2.844.56-4.165.406-1.32.914-2.54 1.625-3.708.711-1.168 1.575-2.184 2.59-3.15 1.016-.964 2.134-1.726 3.353-2.437 1.219-.66 2.54-1.22 3.962-1.575a18.26 18.26 0 0 1 4.47-.559c1.574 0 3.047.204 4.47.56 1.422.355 2.742.863 3.961 1.574a15.719 15.719 0 0 1 3.353 2.438c1.016.965 1.88 1.98 2.59 3.149.711 1.168 1.27 2.387 1.626 3.708.406 1.32.558 2.692.558 4.165 0 1.473-.203 2.844-.558 4.216-.407 1.371-.915 2.641-1.626 3.81-.71 1.168-1.574 2.234-2.59 3.25a17.94 17.94 0 0 1-3.353 2.49c-1.219.71-2.54 1.218-3.962 1.624-1.422.407-2.895.56-4.47.56M289.016 1.168v1.93h-10.87v28.14h-5.029V3.098h-10.92v-1.93zM318.12 1.168v1.93h-15.847v10.718h10.616v1.98h-10.616v13.461h15.848v1.981h-20.877V1.168zM335.492 30.019c.762 0 1.473-.102 2.235-.305a6.155 6.155 0 0 0 1.93-.914 5.393 5.393 0 0 0 1.372-1.473c.355-.559.508-1.27.508-2.032 0-.914-.254-1.727-.712-2.438-.457-.711-1.117-1.371-1.879-1.98-.762-.61-1.676-1.17-2.641-1.677-1.016-.508-1.981-1.067-3.048-1.575a45.315 45.315 0 0 1-3.047-1.676 13.115 13.115 0 0 1-2.642-1.93c-.762-.711-1.371-1.524-1.88-2.387-.456-.864-.71-1.88-.71-3.048 0-1.168.203-2.235.66-3.2.457-.965 1.067-1.828 1.88-2.54.812-.71 1.879-1.27 3.098-1.676 1.219-.406 2.641-.61 4.216-.61 2.844 0 5.08.61 6.755 1.779 1.626 1.168 2.845 2.946 3.556 5.18l-2.59 1.169a12.921 12.921 0 0 0-1.169-2.54 7.892 7.892 0 0 0-1.676-1.98c-.66-.56-1.422-.966-2.235-1.27-.863-.306-1.829-.458-2.895-.458-.965 0-1.778.152-2.49.406-.71.254-1.32.61-1.777 1.016a4.754 4.754 0 0 0-1.067 1.423 3.828 3.828 0 0 0-.355 1.676c0 .812.254 1.524.711 2.184a9.737 9.737 0 0 0 1.93 1.88c.813.609 1.676 1.167 2.743 1.675 1.016.56 2.083 1.067 3.098 1.677 1.067.558 2.083 1.168 3.099 1.727 1.016.61 1.93 1.27 2.743 1.98.812.712 1.422 1.524 1.93 2.388.508.863.711 1.828.711 2.844 0 1.22-.203 2.337-.66 3.353a7.18 7.18 0 0 1-2.032 2.743 10.396 10.396 0 0 1-3.403 1.879c-1.32.457-2.896.66-4.673.66-1.423 0-2.743-.152-3.86-.457-1.118-.305-2.134-.762-2.997-1.371-.864-.61-1.626-1.321-2.235-2.235-.61-.864-1.118-1.88-1.524-2.997l2.743-1.118c.304.966.762 1.88 1.27 2.642.558.762 1.168 1.422 1.879 1.98a7.093 7.093 0 0 0 2.387 1.22 9.678 9.678 0 0 0 2.743.406"/>
  </g>
</svg>
