<?xml version="1.0" encoding="UTF-8"?>
<svg width="32px" height="32px" viewBox="0 0 32 32" version="1.1" xmlns="http://www.w3.org/2000/svg" xmlns:xlink="http://www.w3.org/1999/xlink">
    <!-- Generator: sketchtool 51 (57462) - http://www.bohemiancoding.com/sketch -->
    
    <desc>Created with sketchtool.</desc>
    <defs></defs>
    <g id="Page-1" stroke="none" stroke-width="1" fill="none" fill-rule="evenodd">
        <g id="Icons-/-Instagram" fill="#000000">
            <g id="Export">
                <path d="M12.6675867,16.5 C12.6675867,14.382988 14.3833633,12.66636 16.50046,12.66636 C18.6175567,12.66636 20.3342534,14.382988 20.3342534,16.5 C20.3342534,18.617012 18.6175567,20.33364 16.50046,20.33364 C14.3833633,20.33364 12.6675867,18.617012 12.6675867,16.5 M10.5951118,16.5 C10.5951118,19.7614 13.2389296,22.405112 16.50046,22.405112 C19.7619905,22.405112 22.4058082,19.7614 22.4058082,16.5 C22.4058082,13.2386 19.7619905,10.594888 16.50046,10.594888 C13.2389296,10.594888 10.5951118,13.2386 10.5951118,16.5 M21.2595344,10.360748 C21.2592296,11.1229009 21.8768541,11.7409949 22.6390375,11.7412998 C23.4012208,11.7416046 24.0193397,11.1240048 24.0196446,10.3618519 C24.0199495,9.59969906 23.402325,8.98160492 22.6401416,8.9813 L22.6395896,8.9813 C21.8777688,8.98165505 21.2601942,9.59895786 21.2595344,10.360748 M11.8542742,25.860724 C10.7330253,25.809664 10.1235929,25.622904 9.71859274,25.465124 C9.18165927,25.2561 8.79855594,25.007148 8.39576383,24.604924 C7.99297172,24.2027 7.74364175,23.81998 7.53552942,23.283068 C7.37765111,22.878268 7.19088364,22.268676 7.1399136,21.147472 C7.08415937,19.93528 7.07302692,19.571144 7.07302692,16.500092 C7.07302692,13.42904 7.0850794,13.065916 7.1399136,11.852712 C7.19097564,10.731508 7.37912316,10.123112 7.53552942,9.717116 C7.74456178,9.180204 7.99352374,8.797116 8.39576383,8.39434 C8.79800392,7.991564 9.18073923,7.742244 9.71859274,7.53414 C10.1234089,7.376268 10.7330253,7.189508 11.8542742,7.13854 C13.0665147,7.082788 13.4306652,7.071656 16.50046,7.071656 C19.5702548,7.071656 19.9347734,7.083708 21.1480259,7.13854 C22.2692748,7.1896 22.8776951,7.37774 23.2837073,7.53414 C23.8206408,7.742244 24.2037441,7.992116 24.6065363,8.39434 C25.0093284,8.796564 25.2577383,9.180204 25.4667707,9.717116 C25.624649,10.121916 25.8114165,10.731508 25.8623865,11.852712 C25.9181407,13.065916 25.9292732,13.42904 25.9292732,16.500092 C25.9292732,19.571144 25.9181407,19.934268 25.8623865,21.147472 C25.8113245,22.268676 25.6236369,22.878084 25.4667707,23.283068 C25.2577383,23.81998 25.0087764,24.203068 24.6065363,24.604924 C24.2042962,25.00678 23.8206408,25.2561 23.2837073,25.465124 C22.8788912,25.622996 22.2692748,25.809756 21.1480259,25.860724 C19.9357854,25.916476 19.5716349,25.927608 16.50046,25.927608 C13.4292852,25.927608 13.0661466,25.916476 11.8542742,25.860724 M11.7590504,5.069644 C10.5347574,5.125396 9.69816793,5.319516 8.9675667,5.603796 C8.21092844,5.897368 7.57039882,6.29122 6.93032921,6.930252 C6.29025961,7.569284 5.8974039,8.2108 5.60382015,8.967408 C5.31952878,9.69844 5.12540102,10.534536 5.06964679,11.75878 C5.01297252,12.984956 5,13.376968 5,16.5 C5,19.623032 5.01297252,20.015044 5.06964679,21.24122 C5.12540102,22.465556 5.31952878,23.30156 5.60382015,24.032592 C5.8974039,24.78874 6.29035161,25.430992 6.93032921,26.069748 C7.57030681,26.708504 8.21092844,27.101804 8.9675667,27.396204 C9.69954798,27.680484 10.5347574,27.874604 11.7590504,27.930356 C12.9859194,27.986108 13.3773031,28 16.50046,28 C19.6236169,28 20.0156446,27.987028 21.2418697,27.930356 C22.4662547,27.874604 23.3022921,27.680484 24.0333533,27.396204 C24.7895316,27.101804 25.4305212,26.70878 26.0705908,26.069748 C26.7106604,25.430716 27.1026881,24.78874 27.3970999,24.032592 C27.6813913,23.30156 27.8764391,22.465464 27.9312733,21.24122 C27.9870275,20.014124 28,19.623032 28,16.5 C28,13.376968 27.9870275,12.984956 27.9312733,11.75878 C27.875519,10.534444 27.6813913,9.69798 27.3970999,8.967408 C27.1026881,8.21126 26.7096484,7.570296 26.0705908,6.930252 C25.4315333,6.290208 24.7895316,5.897368 24.0342734,5.603796 C23.3022921,5.319516 22.4661626,5.124476 21.2427897,5.069644 C20.0165647,5.013892 19.624537,5 16.5013801,5 C13.3782231,5 12.9859194,5.012972 11.7590504,5.069644" id="Shape"></path>
            </g>
        </g>
    </g>
</svg>