<?xml version="1.0" encoding="UTF-8"?>
<svg width="32px" height="32px" viewBox="0 0 32 32" version="1.1" xmlns="http://www.w3.org/2000/svg" xmlns:xlink="http://www.w3.org/1999/xlink">
    <!-- Generator: sketchtool 50.2 (55047) - http://www.bohemiancoding.com/sketch -->
    
    <desc>Created with sketchtool.</desc>
    <defs></defs>
    <g id="Page-1" stroke="none" stroke-width="1" >
        <g id="Icons-/-Location" >
            <g id="Export">
                <path d="M15.9166927,4 C21.1130438,4 25.3333594,8.10625303 25.3333587,13.1814397 C25.3363773,15.4620377 24.9315887,16.9643277 23.7330261,18.8301982 C22.9757634,20.008905 20.7563451,23.2022103 17.0617634,28.4296559 C16.6147715,29.0620341 15.7397762,29.2123553 15.1073712,28.7653928 C14.977169,28.6733704 14.8636148,28.5598161 14.7715923,28.429614 C11.0770373,23.202206 8.85762153,20.0089042 8.10033318,18.8301575 C6.90135469,16.9636396 6.49625552,15.4607571 6.50002604,13.1824324 C6.50002604,8.10625303 10.7203417,4 15.9166927,4 Z M15.9166927,27.4508915 C19.547418,22.313033 21.7364306,19.1628477 22.4709998,18.0194641 C23.5073086,16.4061834 23.836011,15.1862718 23.8333594,13.1824324 C23.8333594,8.94401724 20.293675,5.5 15.9166927,5.5 C11.5397104,5.5 8.00002604,8.94401724 8.00002501,13.1836733 C7.99671347,15.1852071 8.32564358,16.405509 9.36235944,18.0194235 C10.0969546,19.1628474 12.2859675,22.313033 15.9166927,27.4508915 Z M11.8160273,13.1764965 C11.8201396,10.9662564 13.6541327,9.18601774 15.9037503,9.18918993 C18.1626339,9.18601788 19.9967351,10.9663614 20.0000252,13.1767756 C20.0033151,15.3870391 18.174332,17.1725023 15.9233594,17.1756757 C13.6423044,17.1725022 11.8127371,15.386963 11.8160273,13.1764965 Z M18.5000269,13.1790082 C18.4979834,11.8061209 17.3452473,10.6871716 15.9133594,10.6891892 C14.4714235,10.6871717 13.3185794,11.8062259 13.3160252,13.1790082 C13.3139878,14.5478324 14.4578503,15.6677663 15.8821089,15.6756367 C15.8885659,15.6754779 15.8969235,15.6752843 15.908026,15.675027 C15.9197321,15.6752851 15.9282968,15.675474 15.9348065,15.6756302 C17.3593605,15.667114 18.502064,14.5476044 18.5000269,13.1790082 Z" id="Shape"></path>
            </g>
        </g>
    </g>
</svg>