<svg xmlns="http://www.w3.org/2000/svg" width="12" height="12" viewBox="0 0 12 12">
    <path fill="#004F89" fill-opacity=".546" fill-rule="nonzero" d="M2.64 11.961a.315.315 0 0 1-.434-.141.352.352 0 0 1-.032-.215l.613-3.747a.348.348 0 0 0-.093-.299L.097 4.905a.35.35 0 0 1-.006-.477.317.317 0 0 1 .185-.099l3.588-.546a.323.323 0 0 0 .243-.185L5.71.188a.315.315 0 0 1 .578 0l1.604 3.41c.047.1.138.169.243.185l3.588.546a.335.335 0 0 1 .273.383.343.343 0 0 1-.094.193L9.306 7.559a.348.348 0 0 0-.093.299l.613 3.747a.336.336 0 0 1-.262.39.309.309 0 0 1-.204-.034l-3.21-1.77a.309.309 0 0 0-.3 0l-3.21 1.77z"/>
</svg>
