<?xml version="1.0" encoding="UTF-8"?>
<svg width="32px" height="32px" viewBox="0 0 32 32" version="1.1" xmlns="http://www.w3.org/2000/svg" xmlns:xlink="http://www.w3.org/1999/xlink">
    <!-- Generator: sketchtool 50.2 (55047) - http://www.bohemiancoding.com/sketch -->
    
    <desc>Created with sketchtool.</desc>
    <defs></defs>
    <g id="Page-1" stroke="none" stroke-width="1" >
        <g id="Icons-/-Person" >
            <g id="Export">
                <path d="M16,17 C12.1340068,17 9,13.8659932 9,10 C9,6.13400675 12.1340068,3 16,3 C19.8659932,3 23,6.13400675 23,10 C23,13.8659932 19.8659932,17 16,17 Z M16,15 C18.7614237,15 21,12.7614237 21,10 C21,7.23857625 18.7614237,5 16,5 C13.2385763,5 11,7.23857625 11,10 C11,12.7614237 13.2385763,15 16,15 Z M28.9191579,26.6061106 C29.1366969,27.1137475 28.9015262,27.7016188 28.3938894,27.9191579 C27.8862525,28.1366969 27.2983812,27.9015262 27.0808421,27.3938894 C25.1739714,22.9441241 20.8029385,20 15.8928493,20 C11.1550776,20 6.91001326,22.7404095 4.90288094,26.9559032 C4.66545886,27.4545506 4.06875668,27.6663155 3.5701093,27.4288934 C3.07146193,27.1914714 2.85969699,26.5947692 3.09711906,26.0961218 C5.43259086,21.1910308 10.3756955,18 15.8928493,18 C21.6108337,18 26.7001298,21.4279127 28.9191579,26.6061106 Z" id="Shape"></path>
            </g>
        </g>
    </g>
</svg>