<?xml version="1.0" encoding="UTF-8"?>
<svg width="32px" height="32px" viewBox="0 0 32 32" version="1.1" xmlns="http://www.w3.org/2000/svg" xmlns:xlink="http://www.w3.org/1999/xlink">
    <!-- Generator: Sketch 51.3 (57544) - http://www.bohemiancoding.com/sketch -->
    <desc>Created with Sketch.</desc>
    <defs></defs>
    <g id="Page-1" stroke="none" stroke-width="1" fill="none" fill-rule="evenodd">
        <g id="Icons-/-Phone" fill="#000000" fill-rule="nonzero">
            <g id="Export">
                <path d="M26.4942947,24.4737586 L26.5670225,24.5216058 L26.017406,25.3570229 L25.9446782,25.3091756 L26.2194864,24.8914671 L26.5631553,25.2546361 C25.2199974,26.5256741 23.5784877,27.2639984 22.3179853,26.9237535 C18.5061381,26.0831727 15.3533513,24.0685562 11.3931972,20.2970382 C7.68341893,16.7639697 4.04993145,9.55796807 5.22482332,7.28376251 C5.39747996,6.94955584 5.58771567,6.65760006 5.80334178,6.38553258 C5.93708821,6.21677725 6.07468371,6.06228974 6.24192671,5.88843427 C6.30768866,5.82007221 6.56401662,5.56064466 6.62431312,5.49758143 C6.65243569,5.46806181 6.65243569,5.46806181 6.67970916,5.43894817 C7.49851836,4.5606948 7.9296219,4.21506844 8.60452253,4.04370068 C9.87548756,3.72098291 11.7005159,5.22908348 12.9311458,7.13363414 C13.9475515,8.7066464 14.3160187,9.57658414 14.3160187,10.5198815 C14.3160187,11.0065021 14.2956953,11.2329428 14.2111665,11.4919593 C14.1343698,11.7272826 14.2508449,11.5114323 13.679768,12.5295467 C13.4872323,12.8727988 13.2404085,13.1468318 12.8673987,13.4776008 C12.8475086,13.4952384 12.5001173,13.795832 12.4147582,13.8751524 C12.1658487,14.1064529 12.0771568,14.2480042 12.0771568,14.3785892 C12.0771568,14.5674082 12.4071639,15.0702321 12.9892199,15.7136926 C13.1333142,15.8729882 13.2913388,16.0403204 13.4657958,16.2191377 C13.6402157,16.3979169 13.8206731,16.57781 14.0479221,16.8007408 C14.0421402,16.7950688 14.457226,17.2008878 14.5560839,17.2988487 C15.8266631,18.5578991 17.0109214,19.5579808 17.4719274,19.8505209 C17.6289201,19.9161107 17.8652745,19.7801883 18.19723,19.4144958 C18.2907754,19.3114434 18.6131171,18.9265909 18.5593033,18.9895231 C18.6004498,18.9414046 19.2158489,18.1587254 19.3999216,17.9805589 C19.7387308,17.6526208 20.1032918,17.5037813 20.5317357,17.5987824 C21.1118155,17.7274067 22.9432888,18.5517117 24.3043882,19.3870351 C25.9983856,20.4266619 27.6297918,21.8109123 27.9051871,22.4955667 C28.1974535,23.2221641 27.6013064,24.2722278 26.5631553,25.2546361 L26.2194864,24.8914671 L26.4942947,24.4737586 Z M26.9774287,22.8687481 C26.8112343,22.4555758 25.2917667,21.1663055 23.7813251,20.239329 C22.5070347,19.4572814 20.7718452,18.6763115 20.3152582,18.5750701 C20.2633253,18.5635547 20.2151053,18.5832415 20.0954068,18.6990993 C19.9689189,18.8215287 19.4001689,19.5448785 19.3193233,19.6394227 C19.3854242,19.5621216 19.0469815,19.9661974 18.9376658,20.0866229 C18.3474697,20.7368011 17.798394,21.0525632 17.152973,20.8045006 C17.0783278,20.7758113 17.0059525,20.7391747 16.9361308,20.694868 C16.4048336,20.3577232 15.16949,19.314501 13.8522071,18.0091708 C13.7561633,17.9139985 13.3441433,17.5111768 13.3476302,17.5145974 C13.1156054,17.2869815 12.9303711,17.1023265 12.7500162,16.9174639 C12.5672873,16.730168 12.4007961,16.5538706 12.2476139,16.3845283 C11.4858571,15.5424093 11.0771568,14.9196824 11.0771568,14.3785892 C11.0771568,13.9019574 11.3005417,13.5454376 11.7340382,13.1426088 C11.8347981,13.0489771 12.1957852,12.7366192 12.2039264,12.7293999 C12.5005893,12.4663321 12.6810132,12.2660186 12.8076029,12.040335 C13.2940088,11.1731719 13.2163024,11.3171766 13.2605091,11.1817167 C13.3030502,11.0513607 13.3160187,10.9068667 13.3160187,10.5198815 C13.3160187,9.81985232 13.0111148,9.09998518 12.0912286,7.67634867 C11.0811927,6.1131944 9.53839105,4.83831001 8.85062838,5.01294364 C8.4250348,5.12100846 8.10146501,5.38042236 7.41113569,6.12086843 C7.37914411,6.15501754 7.37914411,6.15501754 7.34709724,6.18865531 C7.27955589,6.25929583 7.02179544,6.52017319 6.96260594,6.58170294 C6.81585542,6.73425569 6.69864905,6.86585099 6.58705196,7.00665926 C6.4106921,7.22918232 6.25568755,7.46706866 6.11326744,7.7427473 C5.21718485,9.47726949 8.66772588,16.3204482 12.0828469,19.572895 C15.9228712,23.2300055 18.932555,25.1531798 22.5557608,25.9527079 C23.4223321,26.1862401 24.7592424,25.5849196 25.8758176,24.5282981 C26.6310404,23.8136265 27.0562384,23.0646754 26.9774287,22.8687481 Z M6.29764942,6.20358415 L7.3697742,5.57138231 L13.1605215,13.0271966 L12.3856762,13.9022375 L6.29764942,6.20358415 Z M25.9446782,25.3091756 L18.4174061,20.3570229 L18.9670226,19.5216058 L26.4942947,24.4737586 L25.9446782,25.3091756 Z" id="Mask"></path>
            </g>
        </g>
    </g>
</svg>
