<?xml version="1.0" encoding="UTF-8"?>
<svg width="32px" height="32px" viewBox="0 0 32 32" version="1.1" xmlns="http://www.w3.org/2000/svg" xmlns:xlink="http://www.w3.org/1999/xlink">
    <!-- Generator: sketchtool 50.2 (55047) - http://www.bohemiancoding.com/sketch -->
    
    <desc>Created with sketchtool.</desc>
    <defs></defs>
    <g id="Page-1" stroke="none" stroke-width="1" >
        <g id="Icons-/-Plus---Small" >
            <g id="Export">
                <path d="M17,17 L17,23 C17,23.5522847 16.5522847,24 16,24 C15.4477153,24 15,23.5522847 15,23 L15,17 L9,17 C8.44771525,17 8,16.5522847 8,16 C8,15.4477153 8.44771525,15 9,15 L15,15 L15,9 C15,8.44771525 15.4477153,8 16,8 C16.5522847,8 17,8.44771525 17,9 L17,15 L23,15 C23.5522847,15 24,15.4477153 24,16 C24,16.5522847 23.5522847,17 23,17 L17,17 Z" id="Combined-Shape"></path>
            </g>
        </g>
    </g>
</svg>