<?xml version="1.0" encoding="UTF-8"?>
<svg width="32px" height="32px" viewBox="0 0 32 32" version="1.1" xmlns="http://www.w3.org/2000/svg" xmlns:xlink="http://www.w3.org/1999/xlink">
    <!-- Generator: sketchtool 50.2 (55047) - http://www.bohemiancoding.com/sketch -->

    <desc>Created with sketchtool.</desc>
    <defs></defs>
    <g id="Page-1" stroke="none" stroke-width="1" >
        <g id="Icons-/-Houses-/-Soho" >
            <g id="Export">
                <path d="M20.2229712,19.9522945 L27.4804252,19.9522945 L27.4804252,27.4804252 L20.2229712,27.4804252 L20.2229712,19.9522945 Z M4.52061187,19.9522945 L11.9813326,19.9522945 L11.9813326,27.4804252 L4.52061187,27.4804252 L4.52061187,19.9522945 Z M11.9802956,11.8454758 L4.5195748,11.8454758 L4.5195748,4.52061187 L11.9802956,4.52061187 L11.9802956,11.8454758 Z M20.2229712,12.3640135 L27.4804252,12.3640135 L27.4804252,19.4316827 L20.2229712,19.4316827 L20.2229712,12.3640135 Z M12.4998704,4.51853772 L19.7033964,4.51853772 L19.7033964,11.8434016 L12.4998704,11.8434016 L12.4998704,4.51853772 Z M19.7023593,27.4793881 L12.4988333,27.4793881 L12.4988333,19.9512575 L19.7023593,19.9512575 L19.7023593,27.4793881 Z M12.4998704,12.3640135 L19.7033964,12.3640135 L19.7033964,19.4316827 L12.4998704,19.4316827 L12.4998704,12.3640135 Z M11.9802956,19.4316827 L4.5195748,19.4316827 L4.5195748,12.3640135 L11.9802956,12.3640135 L11.9802956,19.4316827 Z M27.4804252,11.8454758 L20.2229712,11.8454758 L20.2229712,4.52061187 L27.4804252,4.52061187 L27.4804252,11.8454758 Z M4,28 L28,28 L28,4 L4,4 L4,28 Z" id="Shape"></path>
            </g>
        </g>
    </g>
</svg>