<?xml version="1.0" encoding="UTF-8"?>
<svg width="32px" height="32px" viewBox="0 0 32 32" version="1.1" xmlns="http://www.w3.org/2000/svg" xmlns:xlink="http://www.w3.org/1999/xlink">
    <!-- Generator: sketchtool 50.2 (55047) - http://www.bohemiancoding.com/sketch -->
    
    <desc>Created with sketchtool.</desc>
    <defs></defs>
    <g id="Page-1" stroke="none" stroke-width="1" >
        <g id="Icons-/-Star" >
            <g id="Export">
                <path d="M21.5007848,19.4949674 C21.3784437,18.7816637 21.6149299,18.053834 22.1331753,17.5486696 L26.610778,13.1840857 L20.4228832,12.284932 C19.7066857,12.1808624 19.0875568,11.7310389 18.7672635,11.0820538 L15.9999529,5.47487001 L13.2326422,11.0820538 C12.9123489,11.7310389 12.29322,12.1808624 11.5770225,12.284932 L5.38912775,13.1840857 L9.86673043,17.5486696 C10.3849758,18.053834 10.621462,18.7816637 10.4991209,19.4949674 L9.44210229,25.6578587 L14.9767236,22.7481361 C15.6173101,22.4113598 16.3825956,22.4113598 17.0231821,22.7481361 L22.5578034,25.6578587 L21.5007848,19.4949674 Z M8.70332747,27.7409192 C8.36168379,27.9205319 7.939122,27.7891799 7.75950929,27.4475362 C7.68798657,27.3114919 7.66330585,27.155664 7.689288,27.0041764 L9.02070841,19.2413998 C9.05959265,19.0146873 8.98442917,18.7833579 8.81971289,18.6227992 L3.17972551,13.1251702 C2.90332997,12.8557511 2.89767442,12.413281 3.16709348,12.1368854 C3.27437757,12.0268233 3.41495197,11.955197 3.56705412,11.9330953 L11.361325,10.8005215 C11.5889573,10.7674445 11.7857378,10.6244751 11.8875381,10.4182053 L15.373242,3.35539773 C15.5440638,3.00927487 15.9631303,2.86716533 16.3092532,3.03798717 C16.4470811,3.10600932 16.5586416,3.21756979 16.6266637,3.35539773 L20.1123676,10.4182053 C20.2141679,10.6244751 20.4109484,10.7674445 20.6385807,10.8005215 L28.4328516,11.9330953 C28.8148208,11.9885987 29.0794737,12.3432403 29.0239703,12.7252096 C29.0018686,12.8773117 28.9302423,13.0178861 28.8201802,13.1251702 L23.1801928,18.6227992 C23.0154765,18.7833579 22.9403131,19.0146873 22.9791973,19.2413998 L24.3106177,27.0041764 C24.3758658,27.3846023 24.1203638,27.7458924 23.739938,27.8111405 C23.5884505,27.8371227 23.4326225,27.812442 23.2965782,27.7409192 L16.3251704,24.0758333 C16.1215699,23.9687941 15.8783358,23.9687941 15.6747353,24.0758333 L8.70332747,27.7409192 Z" id="Shape"></path>
            </g>
        </g>
    </g>
</svg>