<svg xmlns="http://www.w3.org/2000/svg" xmlns:xlink="http://www.w3.org/1999/xlink" width="32" height="32" viewBox="0 0 32 32">
    <defs>
        <path id="a" d="M15.817 6.856h-.008c-.031 1.002-.526 1.504-1.484 1.504-.959 0-1.456-.502-1.491-1.504H11.34V3.099c0-.414.334-.75.747-.75h3.72c.035.998.542 1.497 1.52 1.497.98 0 1.473-.5 1.48-1.497h3.738c.412 0 .746.335.747.748l.056 21.009a.749.749 0 0 1-.747.752h-2.298V7.605a.748.748 0 0 0-.747-.75H16.13l3.416.01c.413 0 .755.325.755.74v20.994c0 .415-.335.75-.747.75h-3.736c-.001-.992-.499-1.487-1.494-1.487-.994 0-1.49.495-1.49 1.487H9.097a.748.748 0 0 1-.747-.75V7.605c0-.415.335-.75.747-.75l3.716.022c.004 1.006.519 1.486 1.513 1.486.995 0 1.492-.502 1.492-1.507zm0 0h.314l-.314-.001zm2.76 4.498c-.203 0-.367.241-.367.539 0 .298.164.54.367.54h.367c.202 0 .367-.242.367-.54 0-.298-.165-.54-.367-.54h-.367zm-4.402 0c-.203 0-.367.241-.367.539 0 .298.164.54.367.54h.367c.202 0 .366-.242.366-.54 0-.298-.164-.54-.366-.54h-.367zm-4.402 0c-.203 0-.367.241-.367.539 0 .298.164.54.367.54h.366c.203 0 .367-.242.367-.54 0-.298-.164-.54-.367-.54h-.366z"/>
    </defs>
    <use fill="none" stroke="#171c26" stroke-width="1.35" transform="rotate(45 15.85 15.85)" xlink:href="#a"/>
</svg>
