<?xml version="1.0" encoding="UTF-8"?>
<svg width="32px" height="32px" viewBox="0 0 32 32" version="1.1" xmlns="http://www.w3.org/2000/svg" xmlns:xlink="http://www.w3.org/1999/xlink">
    <!-- Generator: sketchtool 51 (57462) - http://www.bohemiancoding.com/sketch -->
    
    <desc>Created with sketchtool.</desc>
    <defs></defs>
    <g id="Page-1" stroke="none" stroke-width="1" fill="none" fill-rule="evenodd">
        <g id="Icons-/-Twitter" fill="#000000">
            <g id="Export">
                <path d="M5.96072878,18.7288299 C6.2650476,18.7835251 6.57855266,18.8120879 6.89879093,18.8120879 C7.46260682,18.8120879 8.00555136,18.72355 8.51423411,18.5597412 C6.02061806,18.1694035 4.11394027,16.0302451 4.11394027,13.4498587 C4.11394027,13.4098389 4.11439889,13.3699252 4.11531122,13.3301225 C4.85365815,13.7455287 5.70423436,13.9877726 6.61078538,14.0011179 C5.11310313,13.0916421 4.11394027,11.4549146 4.11394027,9.58696899 C4.11394027,8.61713387 4.38328199,7.70962764 4.85189584,6.93387466 C7.50719789,10.080407 11.4027711,12.1641258 15.7938936,12.4471704 C15.7134503,12.0812628 15.6710705,11.7012717 15.6710705,11.3114733 C15.6710705,8.37802746 18.0711991,6 21.0319081,6 C22.5786971,6 23.9724802,6.64906416 24.9509456,7.68729643 C26.1650203,7.49621114 27.2934056,7.05024964 28.2784914,6.40649166 C27.9151082,7.6356804 27.0881306,8.6686351 25.9978396,9.30691985 C27.0650838,9.20858114 28.0734039,8.92138043 29,8.49029122 C28.3362056,9.56663748 27.4445446,10.4899959 26.3914718,11.1945236 C26.3923195,11.2334054 26.3927456,11.27239 26.3927456,11.3114733 C26.3927456,11.4151112 26.3904906,11.8168588 26.3904906,11.9162339 C26.3904906,20.202266 19.6109066,26.9194215 11.2478651,26.9194215 C8.20567082,26.9194215 5.37300924,26.0305668 3,24.5006738 C3.4217856,24.5491672 3.85082379,24.5740956 4.28573844,24.5740956 C6.80495188,24.5740956 9.12699668,23.7376902 10.9844233,22.3298663 C8.60629257,22.3300768 6.63236458,20.8173344 5.96072878,18.7288299 Z" id="Shape"></path>
            </g>
        </g>
    </g>
</svg>