<svg xmlns="http://www.w3.org/2000/svg" xmlns:xlink="http://www.w3.org/1999/xlink" width="32" height="32" viewBox="0 0 32 32">
    <defs>
        <path id="a" d="M16.595 9.958l-3.542-2.595 2.474-3.168c.28-.245.556-.274.796 0l6.821 7.674h-3.917l.149.108H7.084l3.544-5.492a.66.66 0 0 1 .942-.176l5.025 3.649zm-7.892-.834h-3.36a1.32 1.32 0 0 0-1.319 1.32v.324c0 .728.59 1.319 1.319 1.32l21.278.013A1.38 1.38 0 0 1 28 13.48L28 26.68c0 .73-.59 1.32-1.319 1.32H5.343a1.32 1.32 0 0 1-1.319-1.32V11.012c-.09-.654.075-1.18.495-1.579.275-.26.963-.3 2.07-.308a264.13 264.13 0 0 1 2.114 0zm18.75 8.138h-3.16a2.777 2.777 0 0 0 0 5.555h3.168l-.007-5.555zM6.95 14.37a.72.72 0 0 0-.72.72v1.559c0 .397.323.72.72.72h3.477a.72.72 0 0 0 .72-.72v-1.56a.72.72 0 0 0-.72-.72H6.95zm9.645-4.412l2.61 1.911h.022l-2.632-1.911z"/>
    </defs>
    <use fill="none" fill-rule="evenodd" stroke="#000000" stroke-width="1.008" xlink:href="#a"/>
</svg>
