<?xml version="1.0" encoding="UTF-8"?>
<svg width="32px" height="32px" viewBox="0 0 32 32" version="1.1" xmlns="http://www.w3.org/2000/svg" xmlns:xlink="http://www.w3.org/1999/xlink">
    <!-- Generator: sketchtool 50.2 (55047) - http://www.bohemiancoding.com/sketch -->
    
    <desc>Created with sketchtool.</desc>
    <defs></defs>
    <g id="Page-1" stroke="none" stroke-width="1" >
        <g id="Icons-/-X---Large" >
            <g id="Export">
                <path d="M17.1923882,15.7781746 L24.263456,22.8492424 C24.6539803,23.2397667 24.6539803,23.8729317 24.263456,24.263456 C23.8729317,24.6539803 23.2397667,24.6539803 22.8492424,24.263456 L15.7781746,17.1923882 L8.70710678,24.263456 C8.31658249,24.6539803 7.68341751,24.6539803 7.29289322,24.263456 C6.90236893,23.8729317 6.90236893,23.2397667 7.29289322,22.8492424 L14.363961,15.7781746 L7.29289322,8.70710678 C6.90236893,8.31658249 6.90236893,7.68341751 7.29289322,7.29289322 C7.68341751,6.90236893 8.31658249,6.90236893 8.70710678,7.29289322 L15.7781746,14.363961 L22.8492424,7.29289322 C23.2397667,6.90236893 23.8729317,6.90236893 24.263456,7.29289322 C24.6539803,7.68341751 24.6539803,8.31658249 24.263456,8.70710678 L17.1923882,15.7781746 Z" id="Combined-Shape"></path>
            </g>
        </g>
    </g>
</svg>