<?xml version="1.0" encoding="UTF-8"?>
<svg width="32px" height="32px" viewBox="0 0 32 32" version="1.1" xmlns="http://www.w3.org/2000/svg" xmlns:xlink="http://www.w3.org/1999/xlink">
    <!-- Generator: sketchtool 50.2 (55047) - http://www.bohemiancoding.com/sketch -->
    
    <desc>Created with sketchtool.</desc>
    <defs></defs>
    <g id="Page-1" stroke="none" stroke-width="1" >
        <g id="Icons-/-X---Small" >
            <g id="Export">
                <path d="M17.6286797,16.2144661 L21.8994949,20.4852814 C22.2900192,20.8758057 22.2900192,21.5089706 21.8994949,21.8994949 C21.5089706,22.2900192 20.8758057,22.2900192 20.4852814,21.8994949 L16.2144661,17.6286797 L11.7218254,22.1213203 C11.3313011,22.5118446 10.6981361,22.5118446 10.3076118,22.1213203 C9.91708755,21.7307961 9.91708755,21.0976311 10.3076118,20.7071068 L14.8002525,16.2144661 L10.5857864,12 C10.1952621,11.6094757 10.1952621,10.9763107 10.5857864,10.5857864 C10.9763107,10.1952621 11.6094757,10.1952621 12,10.5857864 L16.2144661,14.8002525 L20.2071068,10.8076118 C20.5976311,10.4170876 21.2307961,10.4170876 21.6213203,10.8076118 C22.0118446,11.1981361 22.0118446,11.8313011 21.6213203,12.2218254 L17.6286797,16.2144661 Z" id="Combined-Shape"></path>
            </g>
        </g>
    </g>
</svg>